mtllib material.mtl
o Default
v 0 5.551115123125783e-17 0
v 0 5.551115123125783e-17 0.5
v 0.5 5.551115123125783e-17 0.5
v 0.5 5.551115123125783e-17 0
v -0.5 0 0
v 0 5.551115123125783e-17 0.5
v -0.5 0 0.5
v 0 5.551115123125783e-17 0
v 0 0 -0.5
v 0.5 5.551115123125783e-17 0
v 0 5.551115123125783e-17 0
v 0.5 0 -0.5
v -0.5 0 -0.5
v 0 5.551115123125783e-17 0
v -0.5 0 0
v 0 0 -0.5
v 1.1102230246251565e-16 0.5 0.5
v 0.5 0.5 2.7755575615628914e-17
v 1.1102230246251565e-16 0.5 2.7755575615628914e-17
v 0.5 0.5 0.5
v 1.1102230246251565e-16 0.5 2.7755575615628914e-17
v 0.5 0.5 -0.5
v 1.1102230246251565e-16 0.5 -0.5
v 0.5 0.5 2.7755575615628914e-17
v -0.5 0.5 0
v 1.1102230246251565e-16 0.5 -0.5
v -0.5 0.5 -0.5
v 1.1102230246251565e-16 0.5 2.7755575615628914e-17
v -0.5 0.5 0.5
v 1.1102230246251565e-16 0.5 2.7755575615628914e-17
v -0.5 0.5 0
v 1.1102230246251565e-16 0.5 0.5
v -0.5 0 0
v -0.5 0.5 0.5
v -0.5 0.5 0
v -0.5 0 0.5
v -0.5 0 -0.5
v -0.5 0.5 0
v -0.5 0.5 -0.5
v -0.5 0 0
v 0 0 -0.5
v -0.5 0.5 -0.5
v 1.1102230246251565e-16 0.5 -0.5
v -0.5 0 -0.5
v 0.5 0 -0.5
v 1.1102230246251565e-16 0.5 -0.5
v 0.5 0.5 -0.5
v 0 0 -0.5
v 0.5 5.551115123125783e-17 0
v 0.5 0.5 -0.5
v 0.5 0.5 2.7755575615628914e-17
v 0.5 0 -0.5
v 0.5 5.551115123125783e-17 0.5
v 0.5 0.5 2.7755575615628914e-17
v 0.5 0.5 0.5
v 0.5 5.551115123125783e-17 0
v 0 5.551115123125783e-17 0.5
v 0.5 0.5 0.5
v 1.1102230246251565e-16 0.5 0.5
v 0.5 5.551115123125783e-17 0.5
v -0.5 0 0.5
v 1.1102230246251565e-16 0.5 0.5
v -0.5 0.5 0.5
v 0 0 0.5
vt 0 0.75
vt 0.25 1
vt 0 1
vt 0.25 0.75
vt 0.25 0.5
vt 0.5 0.75
vt 0.5 0.5
vt 0.5 1
vt 0 0.5
vt 0.75 0.25
vt 1 0.5
vt 0.75 0.5
vt 1 0.25
vt 0.5 0.25
vt 0.25 0.25
vt 0 0.25
vn 0 -1 0
vn 0 1 0
vn -1 0 0
vn 0 0 -1
vn 1 0 0
vn 0 0 1
g 001_Tile_Platform
usemtl 1
f 1/1/1 3/2/1 2/3/1
f 1/1/1 4/4/1 3/2/1
f 5/1/1 6/2/1 7/3/1
f 5/1/1 8/4/1 6/2/1
f 9/5/1 10/6/1 11/4/1
f 9/5/1 12/7/1 10/6/1
f 13/5/1 14/6/1 15/4/1
f 13/5/1 16/7/1 14/6/1
f 17/5/2 18/6/2 19/4/2
f 17/5/2 20/7/2 18/6/2
f 21/4/2 22/8/2 23/2/2
f 21/4/2 24/6/2 22/8/2
f 25/1/2 26/2/2 27/3/2
f 25/1/2 28/4/2 26/2/2
f 29/9/2 30/4/2 31/1/2
f 29/9/2 32/5/2 30/4/2
f 33/10/3 34/11/3 35/12/3
f 33/10/3 36/13/3 34/11/3
f 37/14/3 38/12/3 39/7/3
f 37/14/3 40/10/3 38/12/3
f 41/15/4 42/7/4 43/5/4
f 41/15/4 44/14/4 42/7/4
f 45/16/4 46/5/4 47/9/4
f 45/16/4 48/15/4 46/5/4
f 49/10/5 50/11/5 51/12/5
f 49/10/5 52/13/5 50/11/5
f 53/14/5 54/12/5 55/7/5
f 53/14/5 56/10/5 54/12/5
f 57/15/6 58/7/6 59/5/6
f 57/15/6 60/14/6 58/7/6
f 61/16/6 62/5/6 63/9/6
f 61/16/6 64/15/6 62/5/6
