mtllib material.mtl
o Default
v 1 -5.551115123125783e-17 0
v 1 0.5 0
v 1.5 0.5 0
v 1.5 -5.551115123125783e-17 0
v 1 0.5 0
v 1.5 0.5 -0.5
v 1 0.5 -0.5
v 1.5 0.5 0
v 1 0.5 -0.5
v 1.5 0.5 -1
v 1 0.5 -1
v 1.5 0.5 -0.5
v 1.5 0.5 -0.5
v 2 0.5 -1
v 1.5 0.5 -1
v 2 0.5 -0.5
v 1.5 -1.6653345369377348e-16 -1
v 2 -2.7755575615628914e-17 -0.5
v 1.5 -5.551115123125783e-17 -0.5
v 2 -1.3877787807814457e-16 -1
v 1 -1.6653345369377348e-16 -1
v 1.5 -5.551115123125783e-17 -0.5
v 1 -5.551115123125783e-17 -0.5
v 1.5 -1.6653345369377348e-16 -1
v 1 -5.551115123125783e-17 -0.5
v 1 0.5 0
v 1 0.5 -0.5
v 1 -5.551115123125783e-17 0
v 1 -1.6653345369377348e-16 -1
v 1 0.5 -0.5
v 1 0.5 -1
v 1 -5.551115123125783e-17 -0.5
v 1.5 -1.6653345369377348e-16 -1
v 1 0.5 -1
v 1.5 0.5 -1
v 1 -1.6653345369377348e-16 -1
v 2 -1.3877787807814457e-16 -1
v 1.5 0.5 -1
v 2 0.5 -1
v 1.5 -1.6653345369377348e-16 -1
v 2 -2.7755575615628914e-17 -0.5
v 2 0.5 -1
v 2 0.5 -0.5
v 2 -1.3877787807814457e-16 -1
v 1.5 -5.551115123125783e-17 -0.5
v 2 0.5 -0.5
v 1.5 0.5 -0.5
v 2 -2.7755575615628914e-17 -0.5
v 1.5 -5.551115123125783e-17 0
v 1.5 0.5 -0.5
v 1.5 0.5 0
v 1.5 -5.551115123125783e-17 -0.5
v 1 -5.551115123125783e-17 -0.5
v 1.5 -5.551115123125783e-17 0
v 1 -5.551115123125783e-17 0
v 1.5 -5.551115123125783e-17 -0.5
vt 0 0.25
vt 0.25 0.5
vt 0 0.5
vt 0.25 0.25
vt 0.25 0.75
vt 0 0.75
vt 0.25 1
vt 0 1
vt 0.5 1
vt 0.5 0.75
vt 0.5 0.5
vt 0.75 0.25
vt 1 0.5
vt 0.75 0.5
vt 1 0.25
vt 0.5 0.25
vn 0 0 1
vn 0 1 0
vn 0 -1 0
vn -1 0 0
vn 0 0 -1
vn 1 0 0
g 001_Tile_Platform_V1
usemtl 1
f 1/1/1 3/2/1 2/3/1
f 1/1/1 4/4/1 3/2/1
f 5/3/2 6/5/2 7/6/2
f 5/3/2 8/2/2 6/5/2
f 9/6/2 10/7/2 11/8/2
f 9/6/2 12/5/2 10/7/2
f 13/5/2 14/9/2 15/7/2
f 13/5/2 16/10/2 14/9/2
f 17/2/3 18/10/3 19/5/3
f 17/2/3 20/11/3 18/10/3
f 21/3/3 22/5/3 23/6/3
f 21/3/3 24/2/3 22/5/3
f 25/12/4 26/13/4 27/14/4
f 25/12/4 28/15/4 26/13/4
f 29/16/4 30/14/4 31/11/4
f 29/16/4 32/12/4 30/14/4
f 33/4/5 34/11/5 35/2/5
f 33/4/5 36/16/5 34/11/5
f 37/1/5 38/2/5 39/3/5
f 37/1/5 40/4/5 38/2/5
f 41/12/6 42/13/6 43/14/6
f 41/12/6 44/15/6 42/13/6
f 45/4/1 46/11/1 47/2/1
f 45/4/1 48/16/1 46/11/1
f 49/16/6 50/14/6 51/11/6
f 49/16/6 52/12/6 50/14/6
f 53/6/3 54/7/3 55/8/3
f 53/6/3 56/5/3 54/7/3
